<?xml version="1.0" standalone="no"?>
<!DOCTYPE svg PUBLIC "-//W3C//DTD SVG 20010904//EN" "http://www.w3.org/TR/2001/REC-SVG-20010904/DTD/svg10.dtd">
<svg version="1.0" xmlns="http://www.w3.org/2000/svg" width="400.000000pt" height="200.000000pt" viewBox="0 0 400.000000 200.000000" preserveAspectRatio="xMidYMid meet">

  <g transform="translate(0.000000,200.000000) scale(0.100000,-0.100000)" fill="#FFFFFF" stroke="none">
    <path d="M3378 1355 c-14 -13 -29 -35 -33 -47 -23 -88 -31 -102 -86 -150 -32
-27 -62 -64 -68 -80 -6 -17 -11 -80 -11 -140 l0 -109 -37 3 -38 3 0 120 0 120
25 3 c34 5 43 16 35 41 -9 28 -73 29 -106 2 -23 -18 -24 -26 -27 -160 -4 -139
-4 -140 22 -166 22 -22 33 -25 94 -25 99 0 102 4 102 167 l0 131 62 53 c63 55
97 112 98 162 0 24 4 28 23 25 21 -3 22 -7 22 -88 0 -110 16 -140 76 -140 73
0 79 -8 79 -115 0 -51 -4 -105 -10 -119 -15 -41 -58 -56 -159 -56 -82 0 -90
-2 -96 -21 -12 -37 9 -44 117 -42 90 2 105 5 140 28 63 42 81 94 76 221 -5
136 -19 158 -104 162 l-59 3 3 91 c3 87 2 91 -24 119 -35 37 -79 39 -116 4z" />
    <path d="M442 1138 c-44 -8 -63 -19 -102 -56 -55 -54 -68 -99 -55 -200 6 -51
12 -62 55 -103 40 -39 56 -48 106 -57 33 -5 73 -8 89 -5 39 8 97 45 117 75 16
24 15 25 -15 36 -27 10 -35 9 -75 -18 -54 -36 -65 -37 -122 -7 -134 67 -92
267 56 267 38 0 54 -5 75 -26 26 -25 31 -26 59 -14 36 15 36 19 9 54 -41 52
-108 70 -197 54z" />
    <path d="M1287 1137 c-73 -14 -135 -75 -152 -149 -38 -166 88 -298 253 -266
51 10 122 58 122 82 0 7 -12 18 -26 25 -23 10 -31 9 -63 -14 -95 -65 -211 -1
-211 117 0 84 56 138 141 138 33 0 50 -6 70 -26 26 -25 31 -26 59 -14 16 7 30
16 30 20 0 22 -55 71 -88 79 -69 17 -87 18 -135 8z" />
    <path d="M835 1108 c-4 -18 -11 -37 -15 -43 -4 -5 -22 -48 -39 -95 -58 -153
-91 -243 -91 -247 0 -1 19 -3 43 -3 40 0 43 2 59 40 l17 40 89 0 c96 0 105 -4
117 -53 6 -24 12 -27 51 -27 24 0 44 3 44 8 0 4 -35 98 -77 210 l-77 202 -57
0 c-57 0 -58 0 -64 -32z m106 -143 c16 -50 29 -91 29 -92 0 -2 -32 -3 -71 -3
-53 0 -70 3 -67 13 4 10 22 65 54 165 9 30 27 2 55 -83z" />
    <path d="M1750 982 l0 -159 30 -41 c24 -33 40 -44 86 -58 59 -17 99 -14 167
13 32 13 44 26 63 67 22 46 24 65 24 194 l0 142 -45 0 -45 0 0 -150 c0 -147
-1 -152 -25 -175 -19 -20 -34 -25 -74 -25 -43 0 -53 4 -75 31 -25 30 -26 34
-26 175 l0 144 -40 0 -40 0 0 -158z" />
    <path d="M2210 935 l0 -205 40 0 40 0 0 75 0 75 78 0 c92 0 135 21 158 76 26
62 -5 146 -61 170 -23 9 -72 14 -145 14 l-110 0 0 -205z m221 125 c24 -13 26
-66 2 -92 -12 -14 -31 -18 -80 -18 l-63 0 0 60 0 60 61 0 c33 0 69 -5 80 -10z" />
    <path d="M2610 930 l0 -210 123 0 c154 0 197 16 215 77 15 52 0 98 -39 122
l-29 18 29 21 c57 42 48 115 -18 159 -31 21 -45 23 -157 23 l-124 0 0 -210z
m231 130 c21 -12 25 -41 9 -71 -9 -16 -22 -19 -85 -19 l-75 0 0 50 0 50 66 0
c36 0 74 -5 85 -10z m11 -177 c22 -20 23 -51 1 -75 -13 -14 -31 -18 -90 -18
l-73 0 0 55 0 55 72 0 c52 0 76 -4 90 -17z" />
    <path d="M1512 958 c-7 -7 -12 -19 -12 -28 0 -30 23 -40 91 -40 78 0 99 14 81
55 -11 23 -17 25 -80 25 -40 0 -73 -5 -80 -12z" />
    <path d="M3272 813 c-13 -26 -4 -43 23 -43 14 0 25 7 28 19 9 36 -34 56 -51
24z" />
  </g>
</svg>